<mxfile host="app.diagrams.net" modified="2023-05-26T05:36:42.659Z" agent="Mozilla/5.0 (Macintosh; Intel Mac OS X 10_15_7) AppleWebKit/605.1.15 (KHTML, like Gecko) Version/16.4 Safari/605.1.15" etag="L1M9IqvFBVbHhTzFwZun" version="21.3.4" type="github">
  <diagram name="페이지-1" id="S7hgPRls5JqOPEjPFFx-">
    <mxGraphModel dx="737" dy="589" grid="1" gridSize="10" guides="1" tooltips="1" connect="1" arrows="1" fold="1" page="1" pageScale="1" pageWidth="827" pageHeight="1169" math="0" shadow="0">
      <root>
        <mxCell id="0" />
        <mxCell id="1" parent="0" />
        <mxCell id="GSoOoCgwJ_eQxvDAbE6q-21" style="rounded=0;orthogonalLoop=1;jettySize=auto;html=1;endArrow=none;endFill=0;entryX=0;entryY=0.5;entryDx=0;entryDy=0;strokeWidth=2;fillColor=#ffe6cc;strokeColor=#d79b00;" parent="1" target="GSoOoCgwJ_eQxvDAbE6q-4" edge="1">
          <mxGeometry relative="1" as="geometry">
            <mxPoint x="44" y="250" as="sourcePoint" />
            <mxPoint x="171" y="87" as="targetPoint" />
          </mxGeometry>
        </mxCell>
        <mxCell id="GSoOoCgwJ_eQxvDAbE6q-1" value="이용자" style="shape=umlActor;verticalLabelPosition=bottom;verticalAlign=top;html=1;outlineConnect=0;" parent="1" vertex="1">
          <mxGeometry x="12" y="250" width="30" height="60" as="geometry" />
        </mxCell>
        <mxCell id="GSoOoCgwJ_eQxvDAbE6q-2" value="회원관리 (회원 서비스)" style="shape=umlFrame;whiteSpace=wrap;html=1;pointerEvents=0;width=252;height=30;" parent="1" vertex="1">
          <mxGeometry x="78" y="20" width="582" height="510" as="geometry" />
        </mxCell>
        <mxCell id="GSoOoCgwJ_eQxvDAbE6q-3" value="관리자" style="shape=umlActor;verticalLabelPosition=bottom;verticalAlign=top;html=1;" parent="1" vertex="1">
          <mxGeometry x="12" y="420" width="30" height="60" as="geometry" />
        </mxCell>
        <mxCell id="GSoOoCgwJ_eQxvDAbE6q-4" value="회원 등록" style="ellipse;whiteSpace=wrap;html=1;fillColor=#fff2cc;strokeColor=#d6b656;" parent="1" vertex="1">
          <mxGeometry x="184" y="70" width="120" height="60" as="geometry" />
        </mxCell>
        <mxCell id="GSoOoCgwJ_eQxvDAbE6q-10" value="회원 전체 조회" style="ellipse;whiteSpace=wrap;html=1;fillColor=#fff2cc;strokeColor=#d6b656;" parent="1" vertex="1">
          <mxGeometry x="184" y="428" width="120" height="65" as="geometry" />
        </mxCell>
        <mxCell id="GSoOoCgwJ_eQxvDAbE6q-11" value="회원 탈퇴" style="ellipse;whiteSpace=wrap;html=1;fillColor=#fff2cc;strokeColor=#d6b656;" parent="1" vertex="1">
          <mxGeometry x="184" y="280" width="120" height="60" as="geometry" />
        </mxCell>
        <mxCell id="GSoOoCgwJ_eQxvDAbE6q-12" value="회원 정보 조회" style="ellipse;whiteSpace=wrap;html=1;fillColor=#fff2cc;strokeColor=#d6b656;" parent="1" vertex="1">
          <mxGeometry x="184" y="140" width="120" height="60" as="geometry" />
        </mxCell>
        <mxCell id="GSoOoCgwJ_eQxvDAbE6q-13" value="회원 정보 수정" style="ellipse;whiteSpace=wrap;html=1;fillColor=#fff2cc;strokeColor=#d6b656;" parent="1" vertex="1">
          <mxGeometry x="184" y="210" width="120" height="60" as="geometry" />
        </mxCell>
        <mxCell id="GSoOoCgwJ_eQxvDAbE6q-22" style="rounded=0;orthogonalLoop=1;jettySize=auto;html=1;endArrow=none;endFill=0;entryX=0;entryY=0.5;entryDx=0;entryDy=0;strokeWidth=2;fillColor=#ffe6cc;strokeColor=#d79b00;" parent="1" target="GSoOoCgwJ_eQxvDAbE6q-12" edge="1">
          <mxGeometry relative="1" as="geometry">
            <mxPoint x="49" y="270" as="sourcePoint" />
            <mxPoint x="196" y="109" as="targetPoint" />
          </mxGeometry>
        </mxCell>
        <mxCell id="GSoOoCgwJ_eQxvDAbE6q-23" style="rounded=0;orthogonalLoop=1;jettySize=auto;html=1;endArrow=none;endFill=0;entryX=0;entryY=0.5;entryDx=0;entryDy=0;strokeWidth=2;fillColor=#ffe6cc;strokeColor=#d79b00;" parent="1" target="GSoOoCgwJ_eQxvDAbE6q-13" edge="1">
          <mxGeometry relative="1" as="geometry">
            <mxPoint x="49" y="285" as="sourcePoint" />
            <mxPoint x="184" y="203" as="targetPoint" />
          </mxGeometry>
        </mxCell>
        <mxCell id="GSoOoCgwJ_eQxvDAbE6q-24" style="rounded=0;orthogonalLoop=1;jettySize=auto;html=1;endArrow=none;endFill=0;entryX=0;entryY=0.5;entryDx=0;entryDy=0;strokeWidth=2;fillColor=#ffe6cc;strokeColor=#d79b00;" parent="1" target="GSoOoCgwJ_eQxvDAbE6q-11" edge="1">
          <mxGeometry relative="1" as="geometry">
            <mxPoint x="54" y="300" as="sourcePoint" />
            <mxPoint x="174" y="306" as="targetPoint" />
          </mxGeometry>
        </mxCell>
        <mxCell id="GSoOoCgwJ_eQxvDAbE6q-25" style="rounded=0;orthogonalLoop=1;jettySize=auto;html=1;endArrow=none;endFill=0;entryX=0;entryY=0.5;entryDx=0;entryDy=0;strokeWidth=2;fillColor=#ffe6cc;strokeColor=#d79b00;" parent="1" target="GSoOoCgwJ_eQxvDAbE6q-10" edge="1">
          <mxGeometry relative="1" as="geometry">
            <mxPoint x="54" y="461" as="sourcePoint" />
            <mxPoint x="194" y="267" as="targetPoint" />
          </mxGeometry>
        </mxCell>
        <mxCell id="GSoOoCgwJ_eQxvDAbE6q-26" value="회원 등록" style="ellipse;whiteSpace=wrap;html=1;fillColor=#fff2cc;strokeColor=#d6b656;" parent="1" vertex="1">
          <mxGeometry x="514" y="205" width="110" height="65" as="geometry" />
        </mxCell>
        <mxCell id="GSoOoCgwJ_eQxvDAbE6q-27" style="rounded=0;orthogonalLoop=1;jettySize=auto;html=1;endArrow=block;endFill=1;entryX=0;entryY=0.5;entryDx=0;entryDy=0;dashed=1;strokeWidth=2;fillColor=#ffe6cc;strokeColor=#d79b00;exitX=1;exitY=0.5;exitDx=0;exitDy=0;" parent="1" source="GSoOoCgwJ_eQxvDAbE6q-13" target="GSoOoCgwJ_eQxvDAbE6q-26" edge="1">
          <mxGeometry relative="1" as="geometry">
            <mxPoint x="324" y="284.41" as="sourcePoint" />
            <mxPoint x="459" y="284.41" as="targetPoint" />
          </mxGeometry>
        </mxCell>
        <mxCell id="GSoOoCgwJ_eQxvDAbE6q-29" value="&amp;lt;&amp;lt; include &amp;gt;&amp;gt;" style="edgeLabel;html=1;align=center;verticalAlign=middle;resizable=0;points=[];fontSize=15;fontColor=#D79B00;" parent="GSoOoCgwJ_eQxvDAbE6q-27" vertex="1" connectable="0">
          <mxGeometry x="-0.0859" y="2" relative="1" as="geometry">
            <mxPoint as="offset" />
          </mxGeometry>
        </mxCell>
        <mxCell id="GSoOoCgwJ_eQxvDAbE6q-32" value="나의 등급보기" style="ellipse;whiteSpace=wrap;html=1;fillColor=#fff2cc;strokeColor=#d6b656;" parent="1" vertex="1">
          <mxGeometry x="430" y="40" width="110" height="65" as="geometry" />
        </mxCell>
        <mxCell id="GSoOoCgwJ_eQxvDAbE6q-33" value="포인트 점수 확인" style="ellipse;whiteSpace=wrap;html=1;fillColor=#fff2cc;strokeColor=#d6b656;" parent="1" vertex="1">
          <mxGeometry x="430" y="130" width="110" height="65" as="geometry" />
        </mxCell>
        <mxCell id="GSoOoCgwJ_eQxvDAbE6q-34" value="&amp;lt;&amp;lt; extends &amp;gt;&amp;gt;" style="rounded=0;orthogonalLoop=1;jettySize=auto;html=1;endArrow=none;endFill=0;entryX=0;entryY=0.5;entryDx=0;entryDy=0;strokeWidth=2;fillColor=#ffe6cc;strokeColor=#d79b00;dashed=1;startArrow=block;startFill=1;fontSize=13;fontColor=#D79B00;exitX=1;exitY=0;exitDx=0;exitDy=0;" parent="1" source="GSoOoCgwJ_eQxvDAbE6q-12" target="GSoOoCgwJ_eQxvDAbE6q-32" edge="1">
          <mxGeometry relative="1" as="geometry">
            <mxPoint x="310" y="113" as="sourcePoint" />
            <mxPoint x="434" y="122.5" as="targetPoint" />
          </mxGeometry>
        </mxCell>
        <mxCell id="GSoOoCgwJ_eQxvDAbE6q-35" value="&amp;lt;&amp;lt; extends &amp;gt;&amp;gt;" style="rounded=0;orthogonalLoop=1;jettySize=auto;html=1;endArrow=none;endFill=0;entryX=0;entryY=0.5;entryDx=0;entryDy=0;strokeWidth=2;fillColor=#ffe6cc;strokeColor=#d79b00;exitX=1;exitY=0.5;exitDx=0;exitDy=0;dashed=1;startArrow=block;startFill=1;fontSize=13;fontColor=#D79B00;" parent="1" source="GSoOoCgwJ_eQxvDAbE6q-12" target="GSoOoCgwJ_eQxvDAbE6q-33" edge="1">
          <mxGeometry relative="1" as="geometry">
            <mxPoint x="286.84437034867733" y="133.50214232778285" as="sourcePoint" />
            <mxPoint x="404" y="122.5" as="targetPoint" />
            <Array as="points" />
          </mxGeometry>
        </mxCell>
        <mxCell id="GSoOoCgwJ_eQxvDAbE6q-41" value="DBMS" style="html=1;dropTarget=0;whiteSpace=wrap;fillColor=#dae8fc;strokeColor=#6c8ebf;" parent="1" vertex="1">
          <mxGeometry x="680" y="230" width="140" height="160" as="geometry" />
        </mxCell>
        <mxCell id="GSoOoCgwJ_eQxvDAbE6q-42" value="" style="shape=module;jettyWidth=8;jettyHeight=4;" parent="GSoOoCgwJ_eQxvDAbE6q-41" vertex="1">
          <mxGeometry x="1" width="20" height="20" relative="1" as="geometry">
            <mxPoint x="-27" y="7" as="offset" />
          </mxGeometry>
        </mxCell>
        <mxCell id="GSoOoCgwJ_eQxvDAbE6q-43" style="rounded=0;orthogonalLoop=1;jettySize=auto;html=1;endArrow=none;endFill=0;entryX=0;entryY=0.5;entryDx=0;entryDy=0;strokeWidth=2;fillColor=#dae8fc;strokeColor=#6c8ebf;" parent="1" target="GSoOoCgwJ_eQxvDAbE6q-41" edge="1">
          <mxGeometry relative="1" as="geometry">
            <mxPoint x="304" y="310" as="sourcePoint" />
            <mxPoint x="434" y="320" as="targetPoint" />
          </mxGeometry>
        </mxCell>
      </root>
    </mxGraphModel>
  </diagram>
</mxfile>
